<?xml version="1.0" encoding="utf-8"?>
<!-- Generator: Adobe Illustrator 25.0.0, SVG Export Plug-In . SVG Version: 6.00 Build 0)  -->
<svg version="1.1" id="Layer_1" xmlns="http://www.w3.org/2000/svg" xmlns:xlink="http://www.w3.org/1999/xlink" x="0px" y="0px"
	 viewBox="0 0 50 50" style="enable-background:new 0 0 50 50;" xml:space="preserve">
<style type="text/css">
	.st0{fill:#FFFFFF;}
</style>
<g>
	<path class="st0" d="M2.92,33.78c0.07-0.2,0.11-0.41,0.21-0.6c0.34-0.71,0.92-1.08,1.68-1.09c4.05-0.07,7.93-0.94,11.64-2.56
		c2.16-0.95,4.11-2.2,5.74-3.92c0.76-0.79,1.36-1.71,1.97-2.6c0.2-0.29,0.2-0.3,0.51-0.12c0.97,0.54,1.93,1.09,2.89,1.63
		c0.12,0.07,0.2,0.12,0.1,0.27c-1.02,1.55-2.07,3.08-3.45,4.35c-1.66,1.51-3.53,2.7-5.54,3.67c-2.98,1.44-6.12,2.31-9.37,2.84
		c-0.07,0.01-0.15,0.03-0.27,0.06c0.13,0.12,0.23,0.21,0.33,0.31c1.21,1.17,2.57,2.16,3.91,3.17c0.27,0.2,0.57,0.25,0.89,0.18
		c1.84-0.42,3.52-1.16,4.95-2.42c0.03-0.03,0.07-0.05,0.1-0.08c0.01-0.01,0.03-0.01,0.06-0.02c0.04,0.14-0.04,0.24-0.09,0.35
		c-0.35,0.75-0.85,1.39-1.35,2.04c-0.44,0.58-0.91,1.14-1.41,1.69c-0.13,0.15-0.14,0.21,0.06,0.31c1.07,0.51,2.13,1.03,3.17,1.6
		c0.93,0.51,1.91,0.49,2.9,0.16c1.38-0.46,2.63-1.2,3.83-2.02c1.19-0.82,2.29-1.74,3.37-2.69c0.08-0.07,0.14-0.18,0.29-0.17
		c-0.02,0.21-0.11,0.4-0.19,0.58c-0.53,1.25-1.25,2.4-1.97,3.54c-0.53,0.83-1.08,1.65-1.63,2.47c-0.21,0.32-0.21,0.31,0.15,0.41
		c1.34,0.35,2.7,0.53,4.06,0.76c0.23,0.04,0.46,0.06,0.68,0.12c0.38,0.1,0.64-0.05,0.84-0.36c0.52-0.79,1.03-1.58,1.51-2.4
		c2-3.39,3.65-6.95,4.98-10.65c0.28-0.77,0.57-1.53,0.84-2.3c0.07-0.21,0.17-0.25,0.38-0.17c1.04,0.37,2.09,0.73,3.14,1.08
		c0.21,0.07,0.26,0.15,0.19,0.37c-0.94,2.8-2.02,5.55-3.28,8.23c-1.34,2.86-2.87,5.61-4.65,8.22c-0.2,0.3-0.43,0.57-0.62,0.87
		c-0.6,0.96-1.48,1.28-2.56,1.17c-1.88-0.19-3.75-0.48-5.59-0.91c-5.62-1.32-10.84-3.55-15.57-6.9c-2.72-1.93-5.14-4.2-7.26-6.78
		c-0.28-0.34-0.47-0.73-0.57-1.16C2.92,34.12,2.92,33.95,2.92,33.78z"/>
	<path class="st0" d="M44.78-0.06c0.6,0.14,1.17,0.34,1.65,0.77c0.66,0.59,0.8,1.07,0.5,1.91c-1.7,4.71-3.41,9.41-5.11,14.12
		c-0.25,0.69-0.25,0.69-0.92,0.39c-1.64-0.73-3.28-1.46-4.92-2.19c-0.38-0.17-0.39-0.19-0.19-0.56c1.69-3.17,3.38-6.34,5.07-9.51
		c0.71-1.33,1.42-2.66,2.13-3.99c0.23-0.43,0.51-0.78,0.99-0.93C44.24-0.06,44.51-0.06,44.78-0.06z"/>
	<path class="st0" d="M44.79,25.6c-0.03,0.76-0.16,1.52-0.44,2.25c-0.08,0.21-0.18,0.22-0.36,0.14c-4.07-1.81-8.13-3.63-12.2-5.44
		c-1.89-0.84-3.78-1.69-5.67-2.52c-0.22-0.1-0.27-0.19-0.16-0.41c0.97-1.9,2.55-2.94,4.62-3.29c1.22-0.21,2.38,0.08,3.5,0.58
		c2.33,1.03,4.66,2.05,6.97,3.11c1.9,0.88,3.16,2.29,3.62,4.37C44.75,24.79,44.79,25.19,44.79,25.6z"/>
</g>
</svg>
